<?xml version="1.0" encoding="UTF-8" standalone="no"?>
<!DOCTYPE svg PUBLIC "-//W3C//DTD SVG 1.1//EN"
 "http://www.w3.org/Graphics/SVG/1.1/DTD/svg11.dtd">
<!-- Generated by graphviz version 2.47.1 (0)
 -->
<!-- Pages: 1 -->
<svg width="262pt" height="548pt"
 viewBox="0.00 0.00 262.13 548.00" xmlns="http://www.w3.org/2000/svg" xmlns:xlink="http://www.w3.org/1999/xlink">
<g id="graph0" class="graph" transform="scale(1 1) rotate(0) translate(4 544)">
<polygon fill="white" stroke="transparent" points="-4,4 -4,-544 258.13,-544 258.13,4 -4,4"/>
<!-- 8779949166427 -->
<g id="node1" class="node">
<title>8779949166427</title>
<ellipse fill="#b2dfee" stroke="#b2dfee" cx="173.98" cy="-18" rx="27.1" ry="18"/>
<text text-anchor="middle" x="173.98" y="-14.3" font-family="Times,serif" font-size="14.00">exp</text>
</g>
<!-- 8779949166451 -->
<g id="node2" class="node">
<title>8779949166451</title>
<ellipse fill="#b2dfee" stroke="#b2dfee" cx="173.98" cy="-90" rx="45.49" ry="18"/>
<text text-anchor="middle" x="173.98" y="-86.3" font-family="Times,serif" font-size="14.00">__add__</text>
</g>
<!-- 8779949166451&#45;&gt;8779949166427 -->
<g id="edge1" class="edge">
<title>8779949166451&#45;&gt;8779949166427</title>
<path fill="none" stroke="black" d="M173.98,-71.7C173.98,-63.98 173.98,-54.71 173.98,-46.11"/>
<polygon fill="black" stroke="black" points="177.48,-46.1 173.98,-36.1 170.48,-46.1 177.48,-46.1"/>
</g>
<!-- 8779949166502 -->
<g id="node3" class="node">
<title>8779949166502</title>
<ellipse fill="#b2dfee" stroke="#b2dfee" cx="137.98" cy="-162" rx="45.49" ry="18"/>
<text text-anchor="middle" x="137.98" y="-158.3" font-family="Times,serif" font-size="14.00">__add__</text>
</g>
<!-- 8779949166502&#45;&gt;8779949166451 -->
<g id="edge2" class="edge">
<title>8779949166502&#45;&gt;8779949166451</title>
<path fill="none" stroke="black" d="M146.7,-144.05C150.9,-135.89 156.03,-125.91 160.7,-116.82"/>
<polygon fill="black" stroke="black" points="163.89,-118.28 165.35,-107.79 157.66,-115.08 163.89,-118.28"/>
</g>
<!-- 8779949172824 -->
<g id="node4" class="node">
<title>8779949172824</title>
<ellipse fill="#b2dfee" stroke="#b2dfee" cx="155.98" cy="-378" rx="27" ry="18"/>
<text text-anchor="middle" x="155.98" y="-374.3" font-family="Times,serif" font-size="14.00">log</text>
</g>
<!-- 8779949172824&#45;&gt;8779949166502 -->
<g id="edge3" class="edge">
<title>8779949172824&#45;&gt;8779949166502</title>
<path fill="none" stroke="black" d="M154.54,-359.85C151.43,-322.83 144.05,-235.18 140.29,-190.39"/>
<polygon fill="black" stroke="black" points="143.76,-189.9 139.43,-180.23 136.78,-190.49 143.76,-189.9"/>
</g>
<!-- 8779949172791 -->
<g id="node7" class="node">
<title>8779949172791</title>
<ellipse fill="#b2dfee" stroke="#b2dfee" cx="67.98" cy="-306" rx="46.29" ry="18"/>
<text text-anchor="middle" x="67.98" y="-302.3" font-family="Times,serif" font-size="14.00">__mul__</text>
</g>
<!-- 8779949172824&#45;&gt;8779949172791 -->
<g id="edge7" class="edge">
<title>8779949172824&#45;&gt;8779949172791</title>
<path fill="none" stroke="black" d="M139.02,-363.5C126.66,-353.67 109.65,-340.15 95.38,-328.79"/>
<polygon fill="black" stroke="black" points="97.35,-325.89 87.35,-322.41 93,-331.37 97.35,-325.89"/>
</g>
<!-- 8779949193716 -->
<g id="node5" class="node">
<title>8779949193716</title>
<polygon fill="lightgrey" stroke="black" points="125.98,-540 71.98,-540 71.98,-504 125.98,-504 125.98,-540"/>
<text text-anchor="middle" x="98.98" y="-518.3" font-family="Times,serif" font-size="14.00">a</text>
</g>
<!-- 8779949193716&#45;&gt;8779949172824 -->
<g id="edge4" class="edge">
<title>8779949193716&#45;&gt;8779949172824</title>
<path fill="none" stroke="black" d="M105.86,-503.87C115.71,-479.33 133.93,-433.94 145.48,-405.17"/>
<polygon fill="black" stroke="black" points="148.78,-406.33 149.26,-395.75 142.29,-403.72 148.78,-406.33"/>
</g>
<!-- 8779949166415 -->
<g id="node6" class="node">
<title>8779949166415</title>
<ellipse fill="#b2dfee" stroke="#b2dfee" cx="67.98" cy="-234" rx="46.29" ry="18"/>
<text text-anchor="middle" x="67.98" y="-230.3" font-family="Times,serif" font-size="14.00">__mul__</text>
</g>
<!-- 8779949193716&#45;&gt;8779949166415 -->
<g id="edge11" class="edge">
<title>8779949193716&#45;&gt;8779949166415</title>
<path fill="none" stroke="black" d="M71.72,-505.76C57.44,-496.52 40.74,-483.52 29.98,-468 10.92,-440.5 12.93,-429.09 7.98,-396 0.88,-348.48 -7.34,-331.54 12.98,-288 18.65,-275.86 28.4,-265.05 38.14,-256.41"/>
<polygon fill="black" stroke="black" points="40.43,-259.06 45.87,-249.96 35.95,-253.68 40.43,-259.06"/>
</g>
<!-- 8779949172833 -->
<g id="node9" class="node">
<title>8779949172833</title>
<ellipse fill="#b2dfee" stroke="#b2dfee" cx="65.98" cy="-450" rx="27" ry="18"/>
<text text-anchor="middle" x="65.98" y="-446.3" font-family="Times,serif" font-size="14.00">sin</text>
</g>
<!-- 8779949193716&#45;&gt;8779949172833 -->
<g id="edge10" class="edge">
<title>8779949193716&#45;&gt;8779949172833</title>
<path fill="none" stroke="black" d="M90.83,-503.7C87.01,-495.61 82.39,-485.81 78.18,-476.87"/>
<polygon fill="black" stroke="black" points="81.25,-475.18 73.82,-467.62 74.92,-478.16 81.25,-475.18"/>
</g>
<!-- 8779949166382 -->
<g id="node10" class="node">
<title>8779949166382</title>
<ellipse fill="#b2dfee" stroke="#b2dfee" cx="207.98" cy="-450" rx="46.29" ry="18"/>
<text text-anchor="middle" x="207.98" y="-446.3" font-family="Times,serif" font-size="14.00">__mul__</text>
</g>
<!-- 8779949193716&#45;&gt;8779949166382 -->
<g id="edge13" class="edge">
<title>8779949193716&#45;&gt;8779949166382</title>
<path fill="none" stroke="black" d="M125.65,-503.88C140.96,-494.04 160.29,-481.63 176.37,-471.31"/>
<polygon fill="black" stroke="black" points="178.39,-474.16 184.92,-465.81 174.61,-468.27 178.39,-474.16"/>
</g>
<!-- 8779949166415&#45;&gt;8779949166502 -->
<g id="edge5" class="edge">
<title>8779949166415&#45;&gt;8779949166502</title>
<path fill="none" stroke="black" d="M84.22,-216.76C93.23,-207.75 104.6,-196.39 114.56,-186.43"/>
<polygon fill="black" stroke="black" points="117.24,-188.69 121.84,-179.15 112.29,-183.74 117.24,-188.69"/>
</g>
<!-- 8779949172791&#45;&gt;8779949166415 -->
<g id="edge6" class="edge">
<title>8779949172791&#45;&gt;8779949166415</title>
<path fill="none" stroke="black" d="M67.98,-287.7C67.98,-279.98 67.98,-270.71 67.98,-262.11"/>
<polygon fill="black" stroke="black" points="71.48,-262.1 67.98,-252.1 64.48,-262.1 71.48,-262.1"/>
</g>
<!-- 8779949172866 -->
<g id="node8" class="node">
<title>8779949172866</title>
<ellipse fill="#b2dfee" stroke="#b2dfee" cx="63.98" cy="-378" rx="47.39" ry="18"/>
<text text-anchor="middle" x="63.98" y="-374.3" font-family="Times,serif" font-size="14.00">__pow__</text>
</g>
<!-- 8779949172866&#45;&gt;8779949172791 -->
<g id="edge8" class="edge">
<title>8779949172866&#45;&gt;8779949172791</title>
<path fill="none" stroke="black" d="M64.97,-359.7C65.41,-351.98 65.94,-342.71 66.43,-334.11"/>
<polygon fill="black" stroke="black" points="69.93,-334.29 67.01,-324.1 62.94,-333.89 69.93,-334.29"/>
</g>
<!-- 8779949172833&#45;&gt;8779949172866 -->
<g id="edge9" class="edge">
<title>8779949172833&#45;&gt;8779949172866</title>
<path fill="none" stroke="black" d="M65.49,-431.7C65.27,-423.98 65,-414.71 64.76,-406.11"/>
<polygon fill="black" stroke="black" points="68.26,-406 64.47,-396.1 61.26,-406.2 68.26,-406"/>
</g>
<!-- 8779949166382&#45;&gt;8779949166451 -->
<g id="edge12" class="edge">
<title>8779949166382&#45;&gt;8779949166451</title>
<path fill="none" stroke="black" d="M208.58,-431.95C209.45,-405.3 210.98,-352.12 210.98,-307 210.98,-307 210.98,-307 210.98,-233 210.98,-191.71 196.15,-145.77 185.27,-117.63"/>
<polygon fill="black" stroke="black" points="188.43,-116.11 181.47,-108.11 181.92,-118.7 188.43,-116.11"/>
</g>
<!-- 8779949166574 -->
<g id="node11" class="node">
<title>8779949166574</title>
<ellipse fill="#b2dfee" stroke="#b2dfee" cx="207.98" cy="-522" rx="44.69" ry="18"/>
<text text-anchor="start" x="181.48" y="-518.3" font-family="Times,serif" font-size="14.00">lambda</text>
</g>
<!-- 8779949166574&#45;&gt;8779949166382 -->
<g id="edge14" class="edge">
<title>8779949166574&#45;&gt;8779949166382</title>
<path fill="none" stroke="black" d="M207.98,-503.7C207.98,-495.98 207.98,-486.71 207.98,-478.11"/>
<polygon fill="black" stroke="black" points="211.48,-478.1 207.98,-468.1 204.48,-478.1 211.48,-478.1"/>
</g>
</g>
</svg>
