<?xml version="1.0" encoding="UTF-8" standalone="no"?>
<!DOCTYPE svg PUBLIC "-//W3C//DTD SVG 1.1//EN"
 "http://www.w3.org/Graphics/SVG/1.1/DTD/svg11.dtd">
<!-- Generated by graphviz version 2.47.1 (0)
 -->
<!-- Pages: 1 -->
<svg width="324pt" height="548pt"
 viewBox="0.00 0.00 324.45 548.00" xmlns="http://www.w3.org/2000/svg" xmlns:xlink="http://www.w3.org/1999/xlink">
<g id="graph0" class="graph" transform="scale(1 1) rotate(0) translate(4 544)">
<polygon fill="white" stroke="transparent" points="-4,4 -4,-544 320.45,-544 320.45,4 -4,4"/>
<!-- 8728590293508 -->
<g id="node1" class="node">
<title>8728590293508</title>
<ellipse fill="#b2dfee" stroke="#b2dfee" cx="242.45" cy="-18" rx="27.1" ry="18"/>
<text text-anchor="middle" x="242.45" y="-14.3" font-family="Times,serif" font-size="14.00">exp</text>
</g>
<!-- 8728745198213 -->
<g id="node2" class="node">
<title>8728745198213</title>
<ellipse fill="#b2dfee" stroke="#b2dfee" cx="242.45" cy="-90" rx="45.49" ry="18"/>
<text text-anchor="middle" x="242.45" y="-86.3" font-family="Times,serif" font-size="14.00">__add__</text>
</g>
<!-- 8728745198213&#45;&gt;8728590293508 -->
<g id="edge1" class="edge">
<title>8728745198213&#45;&gt;8728590293508</title>
<path fill="none" stroke="black" d="M242.45,-71.7C242.45,-63.98 242.45,-54.71 242.45,-46.11"/>
<polygon fill="black" stroke="black" points="245.95,-46.1 242.45,-36.1 238.95,-46.1 245.95,-46.1"/>
</g>
<!-- 8728592906978 -->
<g id="node3" class="node">
<title>8728592906978</title>
<ellipse fill="#b2dfee" stroke="#b2dfee" cx="289.45" cy="-378" rx="27" ry="18"/>
<text text-anchor="middle" x="289.45" y="-374.3" font-family="Times,serif" font-size="14.00">log</text>
</g>
<!-- 8728592906978&#45;&gt;8728745198213 -->
<g id="edge2" class="edge">
<title>8728592906978&#45;&gt;8728745198213</title>
<path fill="none" stroke="black" d="M286.65,-359.97C278.8,-312.19 256.52,-176.62 246.93,-118.27"/>
<polygon fill="black" stroke="black" points="250.37,-117.61 245.29,-108.31 243.46,-118.74 250.37,-117.61"/>
</g>
<!-- 8728592901298 -->
<g id="node7" class="node">
<title>8728592901298</title>
<ellipse fill="#b2dfee" stroke="#b2dfee" cx="197.45" cy="-306" rx="46.29" ry="18"/>
<text text-anchor="middle" x="197.45" y="-302.3" font-family="Times,serif" font-size="14.00">__mul__</text>
</g>
<!-- 8728592906978&#45;&gt;8728592901298 -->
<g id="edge7" class="edge">
<title>8728592906978&#45;&gt;8728592901298</title>
<path fill="none" stroke="black" d="M272.14,-363.83C259.05,-353.88 240.81,-339.99 225.62,-328.44"/>
<polygon fill="black" stroke="black" points="227.63,-325.57 217.56,-322.3 223.39,-331.14 227.63,-325.57"/>
</g>
<!-- 8728592906867 -->
<g id="node4" class="node">
<title>8728592906867</title>
<polygon fill="lightgrey" stroke="black" points="176.45,-540 122.45,-540 122.45,-504 176.45,-504 176.45,-540"/>
<text text-anchor="middle" x="149.45" y="-518.3" font-family="Times,serif" font-size="14.00">a</text>
</g>
<!-- 8728592906867&#45;&gt;8728592906978 -->
<g id="edge3" class="edge">
<title>8728592906867&#45;&gt;8728592906978</title>
<path fill="none" stroke="black" d="M176.68,-504.45C191.39,-494.81 209.36,-481.85 223.45,-468 243.36,-448.41 261.92,-422.4 274.26,-403.56"/>
<polygon fill="black" stroke="black" points="277.33,-405.26 279.79,-394.95 271.44,-401.47 277.33,-405.26"/>
</g>
<!-- 8728592901283 -->
<g id="node6" class="node">
<title>8728592901283</title>
<ellipse fill="#b2dfee" stroke="#b2dfee" cx="159.45" cy="-234" rx="46.29" ry="18"/>
<text text-anchor="middle" x="159.45" y="-230.3" font-family="Times,serif" font-size="14.00">__mul__</text>
</g>
<!-- 8728592906867&#45;&gt;8728592901283 -->
<g id="edge11" class="edge">
<title>8728592906867&#45;&gt;8728592901283</title>
<path fill="none" stroke="black" d="M146.71,-503.9C141,-465.16 129.38,-367.88 142.45,-288 143.89,-279.19 146.5,-269.83 149.26,-261.47"/>
<polygon fill="black" stroke="black" points="152.62,-262.46 152.62,-251.87 146.01,-260.15 152.62,-262.46"/>
</g>
<!-- 8728592906966 -->
<g id="node9" class="node">
<title>8728592906966</title>
<ellipse fill="#b2dfee" stroke="#b2dfee" cx="187.45" cy="-450" rx="27" ry="18"/>
<text text-anchor="middle" x="187.45" y="-446.3" font-family="Times,serif" font-size="14.00">sin</text>
</g>
<!-- 8728592906867&#45;&gt;8728592906966 -->
<g id="edge10" class="edge">
<title>8728592906867&#45;&gt;8728592906966</title>
<path fill="none" stroke="black" d="M158.84,-503.7C163.34,-495.4 168.82,-485.31 173.77,-476.19"/>
<polygon fill="black" stroke="black" points="176.99,-477.6 178.68,-467.14 170.83,-474.26 176.99,-477.6"/>
</g>
<!-- 8728745224379 -->
<g id="node10" class="node">
<title>8728745224379</title>
<ellipse fill="#b2dfee" stroke="#b2dfee" cx="47.45" cy="-306" rx="47.39" ry="18"/>
<text text-anchor="middle" x="47.45" y="-302.3" font-family="Times,serif" font-size="14.00">__pow__</text>
</g>
<!-- 8728592906867&#45;&gt;8728745224379 -->
<g id="edge13" class="edge">
<title>8728592906867&#45;&gt;8728745224379</title>
<path fill="none" stroke="black" d="M134,-503.77C125.65,-493.83 115.61,-480.79 108.45,-468 83.55,-423.52 64.75,-366.85 54.98,-333.97"/>
<polygon fill="black" stroke="black" points="58.28,-332.8 52.12,-324.18 51.56,-334.76 58.28,-332.8"/>
</g>
<!-- 8728745198267 -->
<g id="node5" class="node">
<title>8728745198267</title>
<ellipse fill="#b2dfee" stroke="#b2dfee" cx="159.45" cy="-162" rx="46.29" ry="18"/>
<text text-anchor="middle" x="159.45" y="-158.3" font-family="Times,serif" font-size="14.00">__mul__</text>
</g>
<!-- 8728745198267&#45;&gt;8728745198213 -->
<g id="edge4" class="edge">
<title>8728745198267&#45;&gt;8728745198213</title>
<path fill="none" stroke="black" d="M177.87,-145.46C189.15,-135.95 203.77,-123.62 216.25,-113.1"/>
<polygon fill="black" stroke="black" points="218.69,-115.61 224.08,-106.49 214.18,-110.26 218.69,-115.61"/>
</g>
<!-- 8728592901283&#45;&gt;8728745198267 -->
<g id="edge5" class="edge">
<title>8728592901283&#45;&gt;8728745198267</title>
<path fill="none" stroke="black" d="M159.45,-215.7C159.45,-207.98 159.45,-198.71 159.45,-190.11"/>
<polygon fill="black" stroke="black" points="162.95,-190.1 159.45,-180.1 155.95,-190.1 162.95,-190.1"/>
</g>
<!-- 8728592901298&#45;&gt;8728592901283 -->
<g id="edge6" class="edge">
<title>8728592901298&#45;&gt;8728592901283</title>
<path fill="none" stroke="black" d="M188.25,-288.05C183.81,-279.89 178.4,-269.91 173.46,-260.82"/>
<polygon fill="black" stroke="black" points="176.41,-258.91 168.56,-251.79 170.25,-262.25 176.41,-258.91"/>
</g>
<!-- 8728592906780 -->
<g id="node8" class="node">
<title>8728592906780</title>
<ellipse fill="#b2dfee" stroke="#b2dfee" cx="197.45" cy="-378" rx="47.39" ry="18"/>
<text text-anchor="middle" x="197.45" y="-374.3" font-family="Times,serif" font-size="14.00">__pow__</text>
</g>
<!-- 8728592906780&#45;&gt;8728592901298 -->
<g id="edge8" class="edge">
<title>8728592906780&#45;&gt;8728592901298</title>
<path fill="none" stroke="black" d="M197.45,-359.7C197.45,-351.98 197.45,-342.71 197.45,-334.11"/>
<polygon fill="black" stroke="black" points="200.95,-334.1 197.45,-324.1 193.95,-334.1 200.95,-334.1"/>
</g>
<!-- 8728592906966&#45;&gt;8728592906780 -->
<g id="edge9" class="edge">
<title>8728592906966&#45;&gt;8728592906780</title>
<path fill="none" stroke="black" d="M189.87,-432.05C190.97,-424.35 192.3,-415.03 193.54,-406.36"/>
<polygon fill="black" stroke="black" points="197.03,-406.67 194.98,-396.28 190.1,-405.68 197.03,-406.67"/>
</g>
<!-- 8728745224379&#45;&gt;8728745198267 -->
<g id="edge12" class="edge">
<title>8728745224379&#45;&gt;8728745198267</title>
<path fill="none" stroke="black" d="M56.66,-288.13C67.12,-269.62 85.25,-239.41 104.45,-216 113.2,-205.32 123.94,-194.56 133.59,-185.55"/>
<polygon fill="black" stroke="black" points="136.03,-188.06 141.05,-178.73 131.3,-182.9 136.03,-188.06"/>
</g>
</g>
</svg>
